<?xml version="1.0" encoding="utf-8"?>
<!-- Generator: Adobe Illustrator 26.3.0, SVG Export Plug-In . SVG Version: 6.00 Build 0)  -->
<svg version="1.1" id="Layer_1" xmlns="http://www.w3.org/2000/svg" xmlns:xlink="http://www.w3.org/1999/xlink" x="0px" y="0px"
	 viewBox="0 0 720 204.5" style="enable-background:new 0 0 720 204.5;" xml:space="preserve">
<style type="text/css">
	.st0{fill-rule:evenodd;clip-rule:evenodd;fill:#00C9C3;}
	.st1{fill:#FFFFFF;}
	.st2{fill:#00C9C3;}
</style>
<g>
	<g id="gb_Symbol_00000061461281439815224800000005970470966895381892_">
		<path class="st0" d="M185.3,122.8l-64.5,64.5c-11.3,11.3-29.8,11.3-41.1,0l-34-34h38.2c7.8,0,13.2-5.4,13.2-13.2v-28.3
			c0-9.5,0-18.9,0-28.4c0-6.9-5.6-12.6-12.6-12.6c-8.5,0-17.1,0-25.7,0c-6.8,0-12.4,5.7-12.4,12.4c0,12.8,0,25.6,0,38.5
			c0,6.4,5.5,12.1,11.8,12.2c6.1,0.1,12.1,0,18.2,0.1c1.1,0,1.3-0.4,1.3-1.4c0-3.2-0.1-6.5,0-9.7c0.1-1.3-0.4-1.7-1.6-1.6
			c-3.9,0.1-7.6,0.1-11.5,0c-3.5,0-5.5-2-5.5-5.5c0-9,0-17.9,0-26.8c0-3.2,2-5.2,5.2-5.3c4.9-0.1,9.8-0.1,14.7,0
			c3,0.1,5.1,2.2,5.1,5.2c0,15.3,0,31.1,0,46.3c0,3.4-2.1,5.4-5.4,5.4h-46l-17.6-17.6C3.9,111.5,3.9,93,15.2,81.7l64.5-64.5
			c6.5-6.5,15.3-9.2,23.8-8.3V121c0,7.4,5.3,12.8,12.7,12.8h25.3c5.6,0,10.4-3.7,12-9c0.5-1.8,0.7-3.6,0.7-5.5c0-11.3,0-22.6,0-34
			c0-1.4-0.1-2.8-0.3-4.1c-0.9-5.6-6.1-10.4-11.5-10.4c-8.2-0.1-10,0-18.2-0.1c-1.2,0-1.5,0.4-1.5,1.5c0.1,3.1,0.1,6.2,0,9.3
			c-0.1,1.5,0.3,2,1.9,2c5.8-0.1,5.1-0.1,10.9,0c3.5,0.1,5.9,1.5,5.9,5.8c-0.2,8.7-0.1,17.5-0.1,26.2c0,3.6-1.6,5.5-5.2,5.5
			c-7,0.1-7.8,0.1-14.8,0c-2.8,0-4.4-1.7-4.9-4.4c-0.1-0.8-0.1-1.7-0.1-2.6c0-13.8,0-66.4,0-100.6c1.7,1.1,3.3,2.4,4.8,3.9
			l64.5,64.5C196.6,93,196.6,111.5,185.3,122.8z"/>
		<g id="gb_00000044175719298240450840000002503566745285455488_">
			<path class="st1" d="M97,83.4c0,9.5,0,18.9,0,28.4v28.3c0,7.8-5.4,13.2-13.2,13.2H45.6l-12.9-12.9h46c3.4,0,5.4-1.9,5.4-5.4
				c0-15.3,0-31,0-46.3c0-3-2.1-5.1-5.1-5.2c-4.9-0.1-9.8-0.1-14.7,0c-3.2,0.1-5.2,2.1-5.2,5.3c0,9,0,17.9,0,26.8
				c0,3.5,2,5.5,5.5,5.5c3.9,0,7.6,0.1,11.5,0c1.3,0,1.7,0.3,1.6,1.6c-0.1,3.2,0,6.5,0,9.7c0,1-0.2,1.4-1.3,1.4
				c-6.1-0.1-12.1,0-18.2-0.1c-6.4-0.1-11.8-5.8-11.8-12.2c0-12.8,0-25.6,0-38.5c0-6.7,5.6-12.4,12.4-12.4c8.6,0,17.1,0,25.7,0
				C91.4,70.8,97,76.4,97,83.4z"/>
			<path class="st1" d="M154.1,119.3c0,1.8-0.2,3.7-0.7,5.5c-1.6,5.4-6.4,9-12,9h-25.3c-7.3,0-12.7-5.4-12.7-12.8V8.9
				c4.4,0.5,8.7,2,12.6,4.5c0,34.2,0,86.7,0,100.6c0,0.9,0.1,1.8,0.1,2.6c0.4,2.8,2.1,4.4,4.9,4.4c7,0.1,7.8,0.2,14.8,0
				c3.6-0.1,5.2-2,5.2-5.5c0-8.7-0.1-17.5,0.1-26.2c0.1-4.3-2.4-5.8-5.9-5.8c-5.8-0.1-5.1-0.1-10.9,0c-1.6,0-1.9-0.5-1.9-2
				c0.1-3.1,0.1-6.2,0-9.3c0-1.1,0.3-1.5,1.5-1.5c8.2,0.1,9.9,0,18.2,0.1c5.4,0,10.7,4.8,11.5,10.4c0.2,1.4,0.3,2.7,0.3,4.1
				C154.1,96.7,154.1,108,154.1,119.3z"/>
		</g>
	</g>
	<g id="GroupBy_00000059273846456566403070000012468353370319586704_">
		<path id="g_00000010309482939617150800000010479571716758053781_" class="st1" d="M293.9,115.2c0,12.3,0,25.1,0,37.4
			c0,10.3-7.2,17.4-17.4,17.4c-10.3,0-20.5,0-30.8,0c-1.6,0-2.1-0.4-2.1-2c0.1-4.4,0.1-8.7,0-13.1c0-1.6,0.4-2.1,2-2.1
			c8,0.1,16.1,0,24.1,0c4.5,0,7.2-2.5,7.2-7.1c0-20.2,0-41.7,0-61.9c0-4-2.7-6.8-6.7-6.9c-6.5-0.1-13-0.1-19.5,0
			c-4.2,0.1-6.8,2.8-6.9,7c0,11.8,0,24.4,0,36.2c0,4.6,2.6,7.2,7.3,7.3c5.1,0.1,10.1,0.1,15.2,0c1.7,0,2.2,0.4,2.2,2.2
			c-0.1,4.3-0.1,8.6,0,12.8c0,1.4-0.3,1.9-1.7,1.8c-8.1-0.1-16,0.1-24.1-0.1c-8.4-0.1-15.7-7.7-15.7-16.1c0-17,0-34.6,0-51.6
			c0-8.9,7.5-16.3,16.4-16.4c11.3,0,22.6,0,34,0c9.2,0,16.6,7.5,16.6,16.7C293.9,89.4,293.9,102.6,293.9,115.2L293.9,115.2z"/>
		<path id="b_00000003820342606232251870000007809289390981992068_" class="st2" d="M570.8,78.6c0-16.5,0-33,0-49.5
			c0-1.8,0.5-2.3,2.3-2.3c4,0.1,8,0.2,11.9,0c2-0.1,2.5,0.5,2.5,2.5c-0.1,29.3-0.1,59.4,0,88.7c0,1.1,0.1,2.3,0.2,3.4
			c0.6,3.7,2.7,5.9,6.4,5.9c9.3,0.1,10.3,0.2,19.6,0c4.7-0.1,6.8-2.6,6.8-7.3c0-11.5-0.2-23.8,0.1-35.3c0.1-5.8-3.2-7.6-7.7-7.7
			c-7.6-0.1-6.9-0.1-14.6,0c-2.1,0-2.6-0.6-2.5-2.6c0.1-4.1,0.1-8.3,0-12.4c0-1.5,0.4-2,1.9-2c10.9,0.1,13.3,0,24.2,0.1
			c7.2,0.1,14.1,6.4,15.3,13.8c0.3,1.8,0.4,3.6,0.4,5.5c0,15,0,30.7,0,45.6c0,2.5-0.2,4.9-0.9,7.2c-2,7.1-8.5,11.9-15.9,11.9
			c-13.9,0-19.5,0-33.4,0c-9.7,0-16.7-7.1-16.7-16.8C570.8,111.4,570.8,94.6,570.8,78.6L570.8,78.6z"/>
		<path id="p_00000164495788240123776520000017528436881065548437_" class="st1" d="M495.2,121.8c0-14.5,0-29.7,0-44.3
			c0-10.1,7.2-17.3,17.3-17.3c13.5,0,18.6,0.3,32.1-0.1c9.6-0.3,17.5,7.7,17.5,17c0.1,16.5,0.1,33.7,0,50.2
			c-0.1,9.9-7.4,16.9-17.3,16.9c-10.3,0-11.9,0-22.2,0c-1.4,0-2-0.3-1.9-1.9c0.1-4.4,0.1-8.7,0-13.1c0-1.6,0.5-1.9,2-1.9
			c7.7,0.1,6.7,0,14.4,0c2.8,0,5.4-0.4,7-3c0.9-1.3,1.2-2.8,1.2-4.3c0-11.8,0-24.4,0-36.2c0-3.8-1.4-5.6-5-6.6
			c-0.7-0.2-1.5-0.4-2.2-0.4c-9.3,0-10.3,0-19.7,0.1c-3.2,0.1-5.5,2.5-6,5.6c-0.1,1.1-0.2,2.1-0.2,3.2c0,26.8,0,54.9,0,81.6
			c0,2.1-0.6,2.6-2.6,2.5c-4-0.2-8.1-0.1-12.2,0c-1.7,0.1-2.2-0.4-2.2-2.2C495.2,152.7,495.2,136.9,495.2,121.8L495.2,121.8z"/>
		<path id="y_00000137119207146626532210000014731520893817815452_" class="st2" d="M713.3,113.4c0,14.8,0,25.1,0,39.8
			c0,9.2-7.4,16.6-16.5,16.7c-10.6,0.1-21.1,0-31.7,0c-1.5,0-2-0.3-1.9-1.9c0.1-4.4,0.1-8.7,0-13.1c0-1.7,0.4-2.2,2.1-2.2
			c8.1,0.1,18.1,0.1,26.2,0c3.8,0,4.9-1.4,4.9-5.3c0-1.5-0.1-3.4-1.9-3.4c-10.3,0.1-20.7,0-31,0c-10,0-17.2-7.2-17.2-17.2
			c0-21.2,0-43-0.1-64.2c0-2.3,0.6-2.8,2.8-2.7c4,0.2,8,0.1,11.9,0c1.8-0.1,2.3,0.5,2.3,2.3c-0.1,18.7,0,38.1,0,56.9
			c0,5.8,2.5,8.2,8.2,8.2c7.4,0,14.8-0.1,22.3,0c2,0,2.7-0.4,2.7-2.6c-0.1-20.5,0-41.7-0.1-62.2c0-2,0.4-2.8,2.6-2.7
			c4.1,0.2,8.3,0.1,12.4,0c1.7,0,2,0.5,2,2.1c-0.1,15.2,0,25.6,0,40.8V113.4z"/>
		<path id="u_00000075848276926523809440000017991315733103469242_" class="st1" d="M486.6,95.6c0,10.5,0,21.8,0,32.3
			c0,8.9-7.4,16.3-16.3,16.4c-11.3,0-22.6,0-34,0c-4.4,0-8.6-1.7-11.7-4.8c-3.1-3.1-4.8-7.3-4.8-11.7c0-21.5,0-43.8,0-65.3
			c0-2,0.6-2.4,2.4-2.3c3.8,0.1,7.6,0,11.5,0c3.2,0,3-0.5,3,2.9c0,18.7,0,38.1,0,56.9c0,3,0.9,5.4,3.7,6.9c1.3,0.7,2.8,0.7,4.2,0.7
			c5.7,0,11.5,0.1,17.2,0c5.5-0.1,8.1-2.7,8.1-8.2c0-18.6,0-38,0-56.6c0-2,0.4-2.6,2.5-2.5c4,0.2,8.1,0.2,12.2,0
			c1.8-0.1,2.1,0.5,2.1,2.2C486.5,73.4,486.6,84.5,486.6,95.6L486.6,95.6z"/>
		<path id="r_00000091705985005929903770000007765483800795205009_" class="st1" d="M302.4,114.4c0-10.5,0-26.5,0-36.9
			c0-9.9,7.3-17.2,17.2-17.2c4.7,0,9.5,0.1,14.2,0c1.5,0,2.2,0.2,2.1,2c-0.1,4.3-0.1,8.7,0,13.1c0,1.6-0.5,1.9-2,1.9
			c-2.4-0.1-4.9-0.1-7.3,0c-4.7,0.1-7.3,2.7-7.3,7.5c0,18.9,0,38.4,0.1,57.3c0,2.2-0.6,2.6-2.6,2.5c-4-0.2-8.1-0.2-12.2,0
			c-1.9,0.1-2.2-0.6-2.2-2.3c0.1-10.8,0-27.2,0-38.1V114.4z"/>
		<path id="o_00000060024834673451556590000007971716210163587741_" class="st1" d="M411.3,102.1c0-8.5,0-17,0-25.4
			c0-9.2-7.2-16.4-16.5-16.4c-11.2,0-22.5,0-33.7,0c-9,0-16.5,7.5-16.5,16.4c0,16.8,0,34.3,0,51.1c0,9.2,7.3,16.5,16.4,16.5
			c11.4,0,22.8,0,34.2,0c8.7,0,16.1-7.4,16.1-16.1C411.3,119.7,411.3,110.5,411.3,102.1L411.3,102.1z M394.6,120.1
			c0,4.4-2.3,7.2-6.8,7.3c-6.6,0.2-13.1,0.2-19.7,0c-4.3-0.1-6.6-2.8-6.7-7.1c-0.1-4.7,0-10,0-14.7c0-7,0-13.9,0-20.9
			c0-5.2,2.6-7.7,7.8-7.7c5.8,0,11.6,0,17.4,0c5.5,0,8,2.6,8,8c0,5.7,0,11.3,0,17C394.6,107.8,394.6,114.3,394.6,120.1L394.6,120.1z
			"/>
	</g>
</g>
</svg>
